<svg width="12" height="12" viewBox="0 0 12 12" fill="none" xmlns="http://www.w3.org/2000/svg">
<g id="briefcase" clip-path="url(#clip0_810_7939)">
<path id="Icon" d="M8 10.5V2.5C8 2.23478 7.89464 1.98043 7.70711 1.79289C7.51957 1.60536 7.26522 1.5 7 1.5H5C4.73478 1.5 4.48043 1.60536 4.29289 1.79289C4.10536 1.98043 4 2.23478 4 2.5V10.5M2 3.5H10C10.5523 3.5 11 3.94772 11 4.5V9.5C11 10.0523 10.5523 10.5 10 10.5H2C1.44772 10.5 1 10.0523 1 9.5V4.5C1 3.94772 1.44772 3.5 2 3.5Z" stroke="#535862" stroke-width="1.33333" stroke-linecap="round" stroke-linejoin="round"/>
</g>
<defs>
<clipPath id="clip0_810_7939">
<rect width="12" height="12" fill="white"/>
</clipPath>
</defs>
</svg>
